{
	"asset":{
		"version":"2.0",
		"generator":"Houdini GLTF 2.0 Exporter"
	},
	"accessors":[
		{
			"bufferView":0,
			"componentType":5123,
			"count":7422,
			"type":"SCALAR",
			"min":[0
			],
			"max":[2267
			]
		},
		{
			"bufferView":1,
			"componentType":5126,
			"count":2268,
			"type":"VEC3",
			"min":[-5.5,0,-5.5
			],
			"max":[5.5,57.5,5.5
			]
		},
		{
			"bufferView":2,
			"componentType":5126,
			"count":2268,
			"type":"VEC3",
			"min":[0,0,0
			],
			"max":[1,1,1
			]
		}
	],
	"buffers":[
		{
			"uri":"HDB_01_data.bin",
			"byteLength":69276,
			"name":"main_buffer"
		}
	],
	"bufferViews":[
		{
			"buffer":0,
			"byteLength":14844,
			"target":34963
		},
		{
			"buffer":0,
			"byteOffset":14844,
			"byteLength":27216,
			"target":34962
		},
		{
			"buffer":0,
			"byteOffset":42060,
			"byteLength":27216,
			"target":34962
		}
	],
	"nodes":[
		{
			"name":"HDB_prototype",
			"mesh":0
		}
	],
	"meshes":[
		{
			"primitives":[
				{
					"attributes":{
						"COLOR_0":2,
						"POSITION":1
					},
					"indices":0
				}
			],
			"name":"groupdelete1"
		}
	],
	"scenes":[
		{
			"nodes":[0
			]
		}
	],
	"scene":0
}
