{
	"asset":{
		"version":"2.0",
		"generator":"Houdini GLTF 2.0 Exporter"
	},
	"accessors":[
		{
			"bufferView":0,
			"componentType":5123,
			"count":3348,
			"type":"SCALAR",
			"min":[0
			],
			"max":[561
			]
		},
		{
			"bufferView":1,
			"componentType":5126,
			"count":562,
			"type":"VEC3",
			"min":[-3.5,-0.5,-0.75
			],
			"max":[3.75,0.5,0.75
			]
		}
	],
	"buffers":[
		{
			"uri":"multi01_data.bin",
			"byteLength":13440,
			"name":"main_buffer"
		}
	],
	"bufferViews":[
		{
			"buffer":0,
			"byteLength":6696,
			"target":34963
		},
		{
			"buffer":0,
			"byteOffset":6696,
			"byteLength":6744,
			"target":34962
		}
	],
	"nodes":[
		{
			"name":"tree",
			"mesh":0
		}
	],
	"meshes":[
		{
			"primitives":[
				{
					"attributes":{
						"POSITION":1
					},
					"indices":0
				}
			],
			"name":"merge1"
		}
	],
	"scenes":[
		{
			"nodes":[0
			]
		}
	],
	"scene":0
}
