{
	"asset":{
		"version":"2.0",
		"generator":"Houdini GLTF 2.0 Exporter"
	},
	"accessors":[
		{
			"bufferView":0,
			"componentType":5123,
			"count":1584,
			"type":"SCALAR",
			"min":[0
			],
			"max":[265
			]
		},
		{
			"bufferView":1,
			"componentType":5126,
			"count":266,
			"type":"VEC3",
			"min":[-0.5,-0.5,-0.5
			],
			"max":[0.5,0.5,0.5
			]
		}
	],
	"buffers":[
		{
			"uri":"sphere_data.bin",
			"byteLength":6360,
			"name":"main_buffer"
		}
	],
	"bufferViews":[
		{
			"buffer":0,
			"byteLength":3168,
			"target":34963
		},
		{
			"buffer":0,
			"byteOffset":3168,
			"byteLength":3192,
			"target":34962
		}
	],
	"nodes":[
		{
			"name":"tree",
			"mesh":0
		}
	],
	"meshes":[
		{
			"primitives":[
				{
					"attributes":{
						"POSITION":1
					},
					"indices":0
				}
			],
			"name":"sphere1"
		}
	],
	"scenes":[
		{
			"nodes":[0
			]
		}
	],
	"scene":0
}
