{
	"asset":{
		"version":"2.0",
		"generator":"Houdini GLTF 2.0 Exporter"
	},
	"accessors":[
		{
			"bufferView":0,
			"componentType":5123,
			"count":5748,
			"type":"SCALAR",
			"min":[0
			],
			"max":[981
			]
		},
		{
			"bufferView":1,
			"componentType":5126,
			"count":982,
			"type":"VEC3",
			"min":[-10.2975912,-0.66719979,-10.8691473
			],
			"max":[12.1989269,25.9466591,11.5093384
			]
		},
		{
			"bufferView":2,
			"componentType":5126,
			"count":982,
			"type":"VEC3",
			"min":[0.25,0.147916675,0
			],
			"max":[0.25,0.5,0.075000003
			]
		}
	],
	"buffers":[
		{
			"uri":"tree_01_data.bin",
			"byteLength":35064,
			"name":"main_buffer"
		}
	],
	"bufferViews":[
		{
			"buffer":0,
			"byteLength":11496,
			"target":34963
		},
		{
			"buffer":0,
			"byteOffset":11496,
			"byteLength":11784,
			"target":34962
		},
		{
			"buffer":0,
			"byteOffset":23280,
			"byteLength":11784,
			"target":34962
		}
	],
	"nodes":[
		{
			"name":"tree_model",
			"mesh":0
		}
	],
	"meshes":[
		{
			"primitives":[
				{
					"attributes":{
						"COLOR_0":2,
						"POSITION":1
					},
					"indices":0
				}
			],
			"name":"attribdelete2"
		}
	],
	"scenes":[
		{
			"nodes":[0
			]
		}
	],
	"scene":0
}
